<?xml version="1.0" encoding="utf-8" standalone="no"?>
<!DOCTYPE svg PUBLIC "-//W3C//DTD SVG 1.1//EN"
  "http://www.w3.org/Graphics/SVG/1.1/DTD/svg11.dtd">
<svg xmlns:xlink="http://www.w3.org/1999/xlink" width="432pt" height="288pt" viewBox="0 0 432 288" xmlns="http://www.w3.org/2000/svg" version="1.1">
 <metadata>
  <rdf:RDF xmlns:dc="http://purl.org/dc/elements/1.1/" xmlns:cc="http://creativecommons.org/ns#" xmlns:rdf="http://www.w3.org/1999/02/22-rdf-syntax-ns#">
   <cc:Work>
    <dc:type rdf:resource="http://purl.org/dc/dcmitype/StillImage"/>
    <dc:date>2025-04-29T09:12:04.989728</dc:date>
    <dc:format>image/svg+xml</dc:format>
    <dc:creator>
     <cc:Agent>
      <dc:title>Matplotlib v3.10.1, https://matplotlib.org/</dc:title>
     </cc:Agent>
    </dc:creator>
   </cc:Work>
  </rdf:RDF>
 </metadata>
 <defs>
  <style type="text/css">*{stroke-linejoin: round; stroke-linecap: butt}</style>
 </defs>
 <g id="figure_1">
  <g id="patch_1">
   <path d="M 0 288 
L 432 288 
L 432 0 
L 0 0 
z
" style="fill: #ffffff"/>
  </g>
  <g id="axes_1">
   <g id="patch_2">
    <path d="M 54.54 240.18 
L 420 240.18 
L 420 27.12 
L 54.54 27.12 
z
" style="fill: #ffffff"/>
   </g>
   <g id="matplotlib.axis_1">
    <g id="xtick_1">
     <g id="line2d_1">
      <defs>
       <path id="mf0c3c1c5b2" d="M 0 0 
L 0 6 
" style="stroke: #262626; stroke-width: 1.25"/>
      </defs>
      <g>
       <use xlink:href="#mf0c3c1c5b2" x="71.151818" y="240.18" style="fill: #262626; stroke: #262626; stroke-width: 1.25"/>
      </g>
     </g>
     <g id="text_1">
      <!-- 0 -->
      <g style="fill: #262626" transform="translate(67.652443 258.038281) scale(0.11 -0.11)">
       <defs>
        <path id="DejaVuSans-30" d="M 2034 4250 
Q 1547 4250 1301 3770 
Q 1056 3291 1056 2328 
Q 1056 1369 1301 889 
Q 1547 409 2034 409 
Q 2525 409 2770 889 
Q 3016 1369 3016 2328 
Q 3016 3291 2770 3770 
Q 2525 4250 2034 4250 
z
M 2034 4750 
Q 2819 4750 3233 4129 
Q 3647 3509 3647 2328 
Q 3647 1150 3233 529 
Q 2819 -91 2034 -91 
Q 1250 -91 836 529 
Q 422 1150 422 2328 
Q 422 3509 836 4129 
Q 1250 4750 2034 4750 
z
" transform="scale(0.015625)"/>
       </defs>
       <use xlink:href="#DejaVuSans-30"/>
      </g>
     </g>
    </g>
    <g id="xtick_2">
     <g id="line2d_2">
      <g>
       <use xlink:href="#mf0c3c1c5b2" x="138.270275" y="240.18" style="fill: #262626; stroke: #262626; stroke-width: 1.25"/>
      </g>
     </g>
     <g id="text_2">
      <!-- 20 -->
      <g style="fill: #262626" transform="translate(131.271525 258.038281) scale(0.11 -0.11)">
       <defs>
        <path id="DejaVuSans-32" d="M 1228 531 
L 3431 531 
L 3431 0 
L 469 0 
L 469 531 
Q 828 903 1448 1529 
Q 2069 2156 2228 2338 
Q 2531 2678 2651 2914 
Q 2772 3150 2772 3378 
Q 2772 3750 2511 3984 
Q 2250 4219 1831 4219 
Q 1534 4219 1204 4116 
Q 875 4013 500 3803 
L 500 4441 
Q 881 4594 1212 4672 
Q 1544 4750 1819 4750 
Q 2544 4750 2975 4387 
Q 3406 4025 3406 3419 
Q 3406 3131 3298 2873 
Q 3191 2616 2906 2266 
Q 2828 2175 2409 1742 
Q 1991 1309 1228 531 
z
" transform="scale(0.015625)"/>
       </defs>
       <use xlink:href="#DejaVuSans-32"/>
       <use xlink:href="#DejaVuSans-30" transform="translate(63.623047 0)"/>
      </g>
     </g>
    </g>
    <g id="xtick_3">
     <g id="line2d_3">
      <g>
       <use xlink:href="#mf0c3c1c5b2" x="205.388733" y="240.18" style="fill: #262626; stroke: #262626; stroke-width: 1.25"/>
      </g>
     </g>
     <g id="text_3">
      <!-- 40 -->
      <g style="fill: #262626" transform="translate(198.389983 258.038281) scale(0.11 -0.11)">
       <defs>
        <path id="DejaVuSans-34" d="M 2419 4116 
L 825 1625 
L 2419 1625 
L 2419 4116 
z
M 2253 4666 
L 3047 4666 
L 3047 1625 
L 3713 1625 
L 3713 1100 
L 3047 1100 
L 3047 0 
L 2419 0 
L 2419 1100 
L 313 1100 
L 313 1709 
L 2253 4666 
z
" transform="scale(0.015625)"/>
       </defs>
       <use xlink:href="#DejaVuSans-34"/>
       <use xlink:href="#DejaVuSans-30" transform="translate(63.623047 0)"/>
      </g>
     </g>
    </g>
    <g id="xtick_4">
     <g id="line2d_4">
      <g>
       <use xlink:href="#mf0c3c1c5b2" x="272.50719" y="240.18" style="fill: #262626; stroke: #262626; stroke-width: 1.25"/>
      </g>
     </g>
     <g id="text_4">
      <!-- 60 -->
      <g style="fill: #262626" transform="translate(265.50844 258.038281) scale(0.11 -0.11)">
       <defs>
        <path id="DejaVuSans-36" d="M 2113 2584 
Q 1688 2584 1439 2293 
Q 1191 2003 1191 1497 
Q 1191 994 1439 701 
Q 1688 409 2113 409 
Q 2538 409 2786 701 
Q 3034 994 3034 1497 
Q 3034 2003 2786 2293 
Q 2538 2584 2113 2584 
z
M 3366 4563 
L 3366 3988 
Q 3128 4100 2886 4159 
Q 2644 4219 2406 4219 
Q 1781 4219 1451 3797 
Q 1122 3375 1075 2522 
Q 1259 2794 1537 2939 
Q 1816 3084 2150 3084 
Q 2853 3084 3261 2657 
Q 3669 2231 3669 1497 
Q 3669 778 3244 343 
Q 2819 -91 2113 -91 
Q 1303 -91 875 529 
Q 447 1150 447 2328 
Q 447 3434 972 4092 
Q 1497 4750 2381 4750 
Q 2619 4750 2861 4703 
Q 3103 4656 3366 4563 
z
" transform="scale(0.015625)"/>
       </defs>
       <use xlink:href="#DejaVuSans-36"/>
       <use xlink:href="#DejaVuSans-30" transform="translate(63.623047 0)"/>
      </g>
     </g>
    </g>
    <g id="xtick_5">
     <g id="line2d_5">
      <g>
       <use xlink:href="#mf0c3c1c5b2" x="339.625647" y="240.18" style="fill: #262626; stroke: #262626; stroke-width: 1.25"/>
      </g>
     </g>
     <g id="text_5">
      <!-- 80 -->
      <g style="fill: #262626" transform="translate(332.626897 258.038281) scale(0.11 -0.11)">
       <defs>
        <path id="DejaVuSans-38" d="M 2034 2216 
Q 1584 2216 1326 1975 
Q 1069 1734 1069 1313 
Q 1069 891 1326 650 
Q 1584 409 2034 409 
Q 2484 409 2743 651 
Q 3003 894 3003 1313 
Q 3003 1734 2745 1975 
Q 2488 2216 2034 2216 
z
M 1403 2484 
Q 997 2584 770 2862 
Q 544 3141 544 3541 
Q 544 4100 942 4425 
Q 1341 4750 2034 4750 
Q 2731 4750 3128 4425 
Q 3525 4100 3525 3541 
Q 3525 3141 3298 2862 
Q 3072 2584 2669 2484 
Q 3125 2378 3379 2068 
Q 3634 1759 3634 1313 
Q 3634 634 3220 271 
Q 2806 -91 2034 -91 
Q 1263 -91 848 271 
Q 434 634 434 1313 
Q 434 1759 690 2068 
Q 947 2378 1403 2484 
z
M 1172 3481 
Q 1172 3119 1398 2916 
Q 1625 2713 2034 2713 
Q 2441 2713 2670 2916 
Q 2900 3119 2900 3481 
Q 2900 3844 2670 4047 
Q 2441 4250 2034 4250 
Q 1625 4250 1398 4047 
Q 1172 3844 1172 3481 
z
" transform="scale(0.015625)"/>
       </defs>
       <use xlink:href="#DejaVuSans-38"/>
       <use xlink:href="#DejaVuSans-30" transform="translate(63.623047 0)"/>
      </g>
     </g>
    </g>
    <g id="xtick_6">
     <g id="line2d_6">
      <g>
       <use xlink:href="#mf0c3c1c5b2" x="406.744105" y="240.18" style="fill: #262626; stroke: #262626; stroke-width: 1.25"/>
      </g>
     </g>
     <g id="text_6">
      <!-- 100 -->
      <g style="fill: #262626" transform="translate(396.24598 258.038281) scale(0.11 -0.11)">
       <defs>
        <path id="DejaVuSans-31" d="M 794 531 
L 1825 531 
L 1825 4091 
L 703 3866 
L 703 4441 
L 1819 4666 
L 2450 4666 
L 2450 531 
L 3481 531 
L 3481 0 
L 794 0 
L 794 531 
z
" transform="scale(0.015625)"/>
       </defs>
       <use xlink:href="#DejaVuSans-31"/>
       <use xlink:href="#DejaVuSans-30" transform="translate(63.623047 0)"/>
       <use xlink:href="#DejaVuSans-30" transform="translate(127.246094 0)"/>
      </g>
     </g>
    </g>
    <g id="text_7">
     <!-- Step -->
     <g style="fill: #262626" transform="translate(223.607812 273.444063) scale(0.12 -0.12)">
      <defs>
       <path id="DejaVuSans-53" d="M 3425 4513 
L 3425 3897 
Q 3066 4069 2747 4153 
Q 2428 4238 2131 4238 
Q 1616 4238 1336 4038 
Q 1056 3838 1056 3469 
Q 1056 3159 1242 3001 
Q 1428 2844 1947 2747 
L 2328 2669 
Q 3034 2534 3370 2195 
Q 3706 1856 3706 1288 
Q 3706 609 3251 259 
Q 2797 -91 1919 -91 
Q 1588 -91 1214 -16 
Q 841 59 441 206 
L 441 856 
Q 825 641 1194 531 
Q 1563 422 1919 422 
Q 2459 422 2753 634 
Q 3047 847 3047 1241 
Q 3047 1584 2836 1778 
Q 2625 1972 2144 2069 
L 1759 2144 
Q 1053 2284 737 2584 
Q 422 2884 422 3419 
Q 422 4038 858 4394 
Q 1294 4750 2059 4750 
Q 2388 4750 2728 4690 
Q 3069 4631 3425 4513 
z
" transform="scale(0.015625)"/>
       <path id="DejaVuSans-74" d="M 1172 4494 
L 1172 3500 
L 2356 3500 
L 2356 3053 
L 1172 3053 
L 1172 1153 
Q 1172 725 1289 603 
Q 1406 481 1766 481 
L 2356 481 
L 2356 0 
L 1766 0 
Q 1100 0 847 248 
Q 594 497 594 1153 
L 594 3053 
L 172 3053 
L 172 3500 
L 594 3500 
L 594 4494 
L 1172 4494 
z
" transform="scale(0.015625)"/>
       <path id="DejaVuSans-65" d="M 3597 1894 
L 3597 1613 
L 953 1613 
Q 991 1019 1311 708 
Q 1631 397 2203 397 
Q 2534 397 2845 478 
Q 3156 559 3463 722 
L 3463 178 
Q 3153 47 2828 -22 
Q 2503 -91 2169 -91 
Q 1331 -91 842 396 
Q 353 884 353 1716 
Q 353 2575 817 3079 
Q 1281 3584 2069 3584 
Q 2775 3584 3186 3129 
Q 3597 2675 3597 1894 
z
M 3022 2063 
Q 3016 2534 2758 2815 
Q 2500 3097 2075 3097 
Q 1594 3097 1305 2825 
Q 1016 2553 972 2059 
L 3022 2063 
z
" transform="scale(0.015625)"/>
       <path id="DejaVuSans-70" d="M 1159 525 
L 1159 -1331 
L 581 -1331 
L 581 3500 
L 1159 3500 
L 1159 2969 
Q 1341 3281 1617 3432 
Q 1894 3584 2278 3584 
Q 2916 3584 3314 3078 
Q 3713 2572 3713 1747 
Q 3713 922 3314 415 
Q 2916 -91 2278 -91 
Q 1894 -91 1617 61 
Q 1341 213 1159 525 
z
M 3116 1747 
Q 3116 2381 2855 2742 
Q 2594 3103 2138 3103 
Q 1681 3103 1420 2742 
Q 1159 2381 1159 1747 
Q 1159 1113 1420 752 
Q 1681 391 2138 391 
Q 2594 391 2855 752 
Q 3116 1113 3116 1747 
z
" transform="scale(0.015625)"/>
      </defs>
      <use xlink:href="#DejaVuSans-53"/>
      <use xlink:href="#DejaVuSans-74" transform="translate(63.476562 0)"/>
      <use xlink:href="#DejaVuSans-65" transform="translate(102.685547 0)"/>
      <use xlink:href="#DejaVuSans-70" transform="translate(164.208984 0)"/>
     </g>
    </g>
   </g>
   <g id="matplotlib.axis_2">
    <g id="ytick_1">
     <g id="line2d_7">
      <defs>
       <path id="m8080d6854d" d="M 0 0 
L -6 0 
" style="stroke: #262626; stroke-width: 1.25"/>
      </defs>
      <g>
       <use xlink:href="#m8080d6854d" x="54.54" y="230.495455" style="fill: #262626; stroke: #262626; stroke-width: 1.25"/>
      </g>
     </g>
     <g id="text_8">
      <!-- 0.0 -->
      <g style="fill: #262626" transform="translate(27.546563 234.674595) scale(0.11 -0.11)">
       <defs>
        <path id="DejaVuSans-2e" d="M 684 794 
L 1344 794 
L 1344 0 
L 684 0 
L 684 794 
z
" transform="scale(0.015625)"/>
       </defs>
       <use xlink:href="#DejaVuSans-30"/>
       <use xlink:href="#DejaVuSans-2e" transform="translate(63.623047 0)"/>
       <use xlink:href="#DejaVuSans-30" transform="translate(95.410156 0)"/>
      </g>
     </g>
    </g>
    <g id="ytick_2">
     <g id="line2d_8">
      <g>
       <use xlink:href="#m8080d6854d" x="54.54" y="186.384824" style="fill: #262626; stroke: #262626; stroke-width: 1.25"/>
      </g>
     </g>
     <g id="text_9">
      <!-- 0.2 -->
      <g style="fill: #262626" transform="translate(27.546563 190.563965) scale(0.11 -0.11)">
       <use xlink:href="#DejaVuSans-30"/>
       <use xlink:href="#DejaVuSans-2e" transform="translate(63.623047 0)"/>
       <use xlink:href="#DejaVuSans-32" transform="translate(95.410156 0)"/>
      </g>
     </g>
    </g>
    <g id="ytick_3">
     <g id="line2d_9">
      <g>
       <use xlink:href="#m8080d6854d" x="54.54" y="142.274194" style="fill: #262626; stroke: #262626; stroke-width: 1.25"/>
      </g>
     </g>
     <g id="text_10">
      <!-- 0.4 -->
      <g style="fill: #262626" transform="translate(27.546563 146.453334) scale(0.11 -0.11)">
       <use xlink:href="#DejaVuSans-30"/>
       <use xlink:href="#DejaVuSans-2e" transform="translate(63.623047 0)"/>
       <use xlink:href="#DejaVuSans-34" transform="translate(95.410156 0)"/>
      </g>
     </g>
    </g>
    <g id="ytick_4">
     <g id="line2d_10">
      <g>
       <use xlink:href="#m8080d6854d" x="54.54" y="98.163563" style="fill: #262626; stroke: #262626; stroke-width: 1.25"/>
      </g>
     </g>
     <g id="text_11">
      <!-- 0.6 -->
      <g style="fill: #262626" transform="translate(27.546563 102.342704) scale(0.11 -0.11)">
       <use xlink:href="#DejaVuSans-30"/>
       <use xlink:href="#DejaVuSans-2e" transform="translate(63.623047 0)"/>
       <use xlink:href="#DejaVuSans-36" transform="translate(95.410156 0)"/>
      </g>
     </g>
    </g>
    <g id="ytick_5">
     <g id="line2d_11">
      <g>
       <use xlink:href="#m8080d6854d" x="54.54" y="54.052933" style="fill: #262626; stroke: #262626; stroke-width: 1.25"/>
      </g>
     </g>
     <g id="text_12">
      <!-- 0.8 -->
      <g style="fill: #262626" transform="translate(27.546563 58.232074) scale(0.11 -0.11)">
       <use xlink:href="#DejaVuSans-30"/>
       <use xlink:href="#DejaVuSans-2e" transform="translate(63.623047 0)"/>
       <use xlink:href="#DejaVuSans-38" transform="translate(95.410156 0)"/>
      </g>
     </g>
    </g>
    <g id="text_13">
     <!-- Win rate -->
     <g style="fill: #262626" transform="translate(21.050938 159.01125) rotate(-90) scale(0.12 -0.12)">
      <defs>
       <path id="DejaVuSans-57" d="M 213 4666 
L 850 4666 
L 1831 722 
L 2809 4666 
L 3519 4666 
L 4500 722 
L 5478 4666 
L 6119 4666 
L 4947 0 
L 4153 0 
L 3169 4050 
L 2175 0 
L 1381 0 
L 213 4666 
z
" transform="scale(0.015625)"/>
       <path id="DejaVuSans-69" d="M 603 3500 
L 1178 3500 
L 1178 0 
L 603 0 
L 603 3500 
z
M 603 4863 
L 1178 4863 
L 1178 4134 
L 603 4134 
L 603 4863 
z
" transform="scale(0.015625)"/>
       <path id="DejaVuSans-6e" d="M 3513 2113 
L 3513 0 
L 2938 0 
L 2938 2094 
Q 2938 2591 2744 2837 
Q 2550 3084 2163 3084 
Q 1697 3084 1428 2787 
Q 1159 2491 1159 1978 
L 1159 0 
L 581 0 
L 581 3500 
L 1159 3500 
L 1159 2956 
Q 1366 3272 1645 3428 
Q 1925 3584 2291 3584 
Q 2894 3584 3203 3211 
Q 3513 2838 3513 2113 
z
" transform="scale(0.015625)"/>
       <path id="DejaVuSans-20" transform="scale(0.015625)"/>
       <path id="DejaVuSans-72" d="M 2631 2963 
Q 2534 3019 2420 3045 
Q 2306 3072 2169 3072 
Q 1681 3072 1420 2755 
Q 1159 2438 1159 1844 
L 1159 0 
L 581 0 
L 581 3500 
L 1159 3500 
L 1159 2956 
Q 1341 3275 1631 3429 
Q 1922 3584 2338 3584 
Q 2397 3584 2469 3576 
Q 2541 3569 2628 3553 
L 2631 2963 
z
" transform="scale(0.015625)"/>
       <path id="DejaVuSans-61" d="M 2194 1759 
Q 1497 1759 1228 1600 
Q 959 1441 959 1056 
Q 959 750 1161 570 
Q 1363 391 1709 391 
Q 2188 391 2477 730 
Q 2766 1069 2766 1631 
L 2766 1759 
L 2194 1759 
z
M 3341 1997 
L 3341 0 
L 2766 0 
L 2766 531 
Q 2569 213 2275 61 
Q 1981 -91 1556 -91 
Q 1019 -91 701 211 
Q 384 513 384 1019 
Q 384 1609 779 1909 
Q 1175 2209 1959 2209 
L 2766 2209 
L 2766 2266 
Q 2766 2663 2505 2880 
Q 2244 3097 1772 3097 
Q 1472 3097 1187 3025 
Q 903 2953 641 2809 
L 641 3341 
Q 956 3463 1253 3523 
Q 1550 3584 1831 3584 
Q 2591 3584 2966 3190 
Q 3341 2797 3341 1997 
z
" transform="scale(0.015625)"/>
      </defs>
      <use xlink:href="#DejaVuSans-57"/>
      <use xlink:href="#DejaVuSans-69" transform="translate(96.626953 0)"/>
      <use xlink:href="#DejaVuSans-6e" transform="translate(124.410156 0)"/>
      <use xlink:href="#DejaVuSans-20" transform="translate(187.789062 0)"/>
      <use xlink:href="#DejaVuSans-72" transform="translate(219.576172 0)"/>
      <use xlink:href="#DejaVuSans-61" transform="translate(260.689453 0)"/>
      <use xlink:href="#DejaVuSans-74" transform="translate(321.96875 0)"/>
      <use xlink:href="#DejaVuSans-65" transform="translate(361.177734 0)"/>
     </g>
    </g>
   </g>
   <g id="line2d_12">
    <path d="M 71.151818 79.590666 
L 403.388182 79.590666 
" clip-path="url(#p03ee4aa229)" style="fill: none; stroke-dasharray: 7.4,3.2; stroke-dashoffset: 0; stroke: #dd8452; stroke-width: 2"/>
   </g>
   <g id="line2d_13">
    <path d="M 71.151818 72.531711 
L 403.388182 72.531711 
" clip-path="url(#p03ee4aa229)" style="fill: none; stroke-dasharray: 7.4,3.2; stroke-dashoffset: 0; stroke: #55a868; stroke-width: 2"/>
   </g>
   <g id="line2d_14">
    <path d="M 71.151818 230.495455 
L 74.507741 230.495455 
L 77.863664 230.495455 
L 81.219587 205.989549 
L 84.57551 171.681281 
L 87.931433 172.113738 
L 91.287355 179.033052 
L 94.643278 213.083364 
L 97.999201 135.53507 
L 101.355124 97.818949 
L 104.711047 127.57065 
L 108.06697 133.30254 
L 111.422893 108.403531 
L 114.778815 90.63248 
L 118.134738 111.15505 
L 121.490661 98.319984 
L 124.846584 106.268227 
L 128.202507 106.061751 
L 131.55843 116.66157 
L 134.914353 108.574768 
L 138.270275 82.991754 
L 141.626198 106.183678 
L 144.982121 99.841685 
L 148.338044 90.529031 
L 151.693967 91.451076 
L 155.04989 103.117164 
L 158.405813 82.857416 
L 161.761736 102.621553 
L 165.117658 94.996045 
L 168.473581 109.059939 
L 171.829504 84.469879 
L 175.185427 68.997518 
L 178.54135 75.684107 
L 181.897273 71.851959 
L 185.253196 76.831373 
L 188.609118 83.46002 
L 191.965041 73.491516 
L 195.320964 54.428876 
L 198.676887 62.602465 
L 202.03281 50.042876 
L 205.388733 52.086217 
L 208.744656 65.67992 
L 212.100579 77.398719 
L 215.456501 74.124437 
L 218.812424 54.052933 
L 222.168347 64.481261 
L 225.52427 57.095045 
L 228.880193 65.714364 
L 232.236116 69.369124 
L 235.592039 54.562882 
L 238.947961 61.533683 
L 242.303884 56.841536 
L 245.659807 62.545497 
L 249.01573 62.216264 
L 252.371653 56.10459 
L 255.727576 73.995164 
L 259.083499 60.010403 
L 262.439421 47.808356 
L 265.795344 62.924345 
L 269.151267 60.788389 
L 272.50719 53.12289 
L 275.863113 54.052933 
L 279.219036 65.080591 
L 282.574959 46.701161 
L 285.930882 55.027754 
L 289.286804 57.116171 
L 292.642727 61.692204 
L 295.99865 53.288009 
L 299.354573 50.316787 
L 302.710496 55.148849 
L 306.066419 59.801393 
L 309.422342 57.366944 
L 312.778264 61.321162 
L 316.134187 54.313943 
L 319.49011 52.124599 
L 322.846033 46.491111 
L 326.201956 44.166068 
L 329.557879 59.172917 
L 332.913802 50.862541 
L 336.269725 56.246279 
L 339.625647 58.074068 
L 342.98157 40.500872 
L 346.337493 40.740265 
L 349.693416 38.012704 
L 353.049339 54.940216 
L 356.405262 36.804545 
L 359.761185 62.398187 
L 363.117107 59.37663 
L 366.47303 42.955036 
L 369.828953 50.287391 
L 373.184876 46.91739 
L 376.540799 47.230066 
L 379.896722 43.673961 
L 383.252645 44.731937 
L 386.608567 43.281733 
L 389.96449 43.15059 
L 393.320413 58.53876 
L 396.676336 54.683085 
L 400.032259 46.290448 
L 403.388182 51.051322 
" clip-path="url(#p03ee4aa229)" style="fill: none; stroke: #4c72b0; stroke-width: 2; stroke-linecap: round"/>
    <defs>
     <path id="ma0385bc65b" d="M 0 3 
C 0.795609 3 1.55874 2.683901 2.12132 2.12132 
C 2.683901 1.55874 3 0.795609 3 0 
C 3 -0.795609 2.683901 -1.55874 2.12132 -2.12132 
C 1.55874 -2.683901 0.795609 -3 0 -3 
C -0.795609 -3 -1.55874 -2.683901 -2.12132 -2.12132 
C -2.683901 -1.55874 -3 -0.795609 -3 0 
C -3 0.795609 -2.683901 1.55874 -2.12132 2.12132 
C -1.55874 2.683901 -0.795609 3 0 3 
z
" style="stroke: #4c72b0"/>
    </defs>
    <g clip-path="url(#p03ee4aa229)">
     <use xlink:href="#ma0385bc65b" x="71.151818" y="230.495455" style="fill: #4c72b0; stroke: #4c72b0"/>
     <use xlink:href="#ma0385bc65b" x="74.507741" y="230.495455" style="fill: #4c72b0; stroke: #4c72b0"/>
     <use xlink:href="#ma0385bc65b" x="77.863664" y="230.495455" style="fill: #4c72b0; stroke: #4c72b0"/>
     <use xlink:href="#ma0385bc65b" x="81.219587" y="205.989549" style="fill: #4c72b0; stroke: #4c72b0"/>
     <use xlink:href="#ma0385bc65b" x="84.57551" y="171.681281" style="fill: #4c72b0; stroke: #4c72b0"/>
     <use xlink:href="#ma0385bc65b" x="87.931433" y="172.113738" style="fill: #4c72b0; stroke: #4c72b0"/>
     <use xlink:href="#ma0385bc65b" x="91.287355" y="179.033052" style="fill: #4c72b0; stroke: #4c72b0"/>
     <use xlink:href="#ma0385bc65b" x="94.643278" y="213.083364" style="fill: #4c72b0; stroke: #4c72b0"/>
     <use xlink:href="#ma0385bc65b" x="97.999201" y="135.53507" style="fill: #4c72b0; stroke: #4c72b0"/>
     <use xlink:href="#ma0385bc65b" x="101.355124" y="97.818949" style="fill: #4c72b0; stroke: #4c72b0"/>
     <use xlink:href="#ma0385bc65b" x="104.711047" y="127.57065" style="fill: #4c72b0; stroke: #4c72b0"/>
     <use xlink:href="#ma0385bc65b" x="108.06697" y="133.30254" style="fill: #4c72b0; stroke: #4c72b0"/>
     <use xlink:href="#ma0385bc65b" x="111.422893" y="108.403531" style="fill: #4c72b0; stroke: #4c72b0"/>
     <use xlink:href="#ma0385bc65b" x="114.778815" y="90.63248" style="fill: #4c72b0; stroke: #4c72b0"/>
     <use xlink:href="#ma0385bc65b" x="118.134738" y="111.15505" style="fill: #4c72b0; stroke: #4c72b0"/>
     <use xlink:href="#ma0385bc65b" x="121.490661" y="98.319984" style="fill: #4c72b0; stroke: #4c72b0"/>
     <use xlink:href="#ma0385bc65b" x="124.846584" y="106.268227" style="fill: #4c72b0; stroke: #4c72b0"/>
     <use xlink:href="#ma0385bc65b" x="128.202507" y="106.061751" style="fill: #4c72b0; stroke: #4c72b0"/>
     <use xlink:href="#ma0385bc65b" x="131.55843" y="116.66157" style="fill: #4c72b0; stroke: #4c72b0"/>
     <use xlink:href="#ma0385bc65b" x="134.914353" y="108.574768" style="fill: #4c72b0; stroke: #4c72b0"/>
     <use xlink:href="#ma0385bc65b" x="138.270275" y="82.991754" style="fill: #4c72b0; stroke: #4c72b0"/>
     <use xlink:href="#ma0385bc65b" x="141.626198" y="106.183678" style="fill: #4c72b0; stroke: #4c72b0"/>
     <use xlink:href="#ma0385bc65b" x="144.982121" y="99.841685" style="fill: #4c72b0; stroke: #4c72b0"/>
     <use xlink:href="#ma0385bc65b" x="148.338044" y="90.529031" style="fill: #4c72b0; stroke: #4c72b0"/>
     <use xlink:href="#ma0385bc65b" x="151.693967" y="91.451076" style="fill: #4c72b0; stroke: #4c72b0"/>
     <use xlink:href="#ma0385bc65b" x="155.04989" y="103.117164" style="fill: #4c72b0; stroke: #4c72b0"/>
     <use xlink:href="#ma0385bc65b" x="158.405813" y="82.857416" style="fill: #4c72b0; stroke: #4c72b0"/>
     <use xlink:href="#ma0385bc65b" x="161.761736" y="102.621553" style="fill: #4c72b0; stroke: #4c72b0"/>
     <use xlink:href="#ma0385bc65b" x="165.117658" y="94.996045" style="fill: #4c72b0; stroke: #4c72b0"/>
     <use xlink:href="#ma0385bc65b" x="168.473581" y="109.059939" style="fill: #4c72b0; stroke: #4c72b0"/>
     <use xlink:href="#ma0385bc65b" x="171.829504" y="84.469879" style="fill: #4c72b0; stroke: #4c72b0"/>
     <use xlink:href="#ma0385bc65b" x="175.185427" y="68.997518" style="fill: #4c72b0; stroke: #4c72b0"/>
     <use xlink:href="#ma0385bc65b" x="178.54135" y="75.684107" style="fill: #4c72b0; stroke: #4c72b0"/>
     <use xlink:href="#ma0385bc65b" x="181.897273" y="71.851959" style="fill: #4c72b0; stroke: #4c72b0"/>
     <use xlink:href="#ma0385bc65b" x="185.253196" y="76.831373" style="fill: #4c72b0; stroke: #4c72b0"/>
     <use xlink:href="#ma0385bc65b" x="188.609118" y="83.46002" style="fill: #4c72b0; stroke: #4c72b0"/>
     <use xlink:href="#ma0385bc65b" x="191.965041" y="73.491516" style="fill: #4c72b0; stroke: #4c72b0"/>
     <use xlink:href="#ma0385bc65b" x="195.320964" y="54.428876" style="fill: #4c72b0; stroke: #4c72b0"/>
     <use xlink:href="#ma0385bc65b" x="198.676887" y="62.602465" style="fill: #4c72b0; stroke: #4c72b0"/>
     <use xlink:href="#ma0385bc65b" x="202.03281" y="50.042876" style="fill: #4c72b0; stroke: #4c72b0"/>
     <use xlink:href="#ma0385bc65b" x="205.388733" y="52.086217" style="fill: #4c72b0; stroke: #4c72b0"/>
     <use xlink:href="#ma0385bc65b" x="208.744656" y="65.67992" style="fill: #4c72b0; stroke: #4c72b0"/>
     <use xlink:href="#ma0385bc65b" x="212.100579" y="77.398719" style="fill: #4c72b0; stroke: #4c72b0"/>
     <use xlink:href="#ma0385bc65b" x="215.456501" y="74.124437" style="fill: #4c72b0; stroke: #4c72b0"/>
     <use xlink:href="#ma0385bc65b" x="218.812424" y="54.052933" style="fill: #4c72b0; stroke: #4c72b0"/>
     <use xlink:href="#ma0385bc65b" x="222.168347" y="64.481261" style="fill: #4c72b0; stroke: #4c72b0"/>
     <use xlink:href="#ma0385bc65b" x="225.52427" y="57.095045" style="fill: #4c72b0; stroke: #4c72b0"/>
     <use xlink:href="#ma0385bc65b" x="228.880193" y="65.714364" style="fill: #4c72b0; stroke: #4c72b0"/>
     <use xlink:href="#ma0385bc65b" x="232.236116" y="69.369124" style="fill: #4c72b0; stroke: #4c72b0"/>
     <use xlink:href="#ma0385bc65b" x="235.592039" y="54.562882" style="fill: #4c72b0; stroke: #4c72b0"/>
     <use xlink:href="#ma0385bc65b" x="238.947961" y="61.533683" style="fill: #4c72b0; stroke: #4c72b0"/>
     <use xlink:href="#ma0385bc65b" x="242.303884" y="56.841536" style="fill: #4c72b0; stroke: #4c72b0"/>
     <use xlink:href="#ma0385bc65b" x="245.659807" y="62.545497" style="fill: #4c72b0; stroke: #4c72b0"/>
     <use xlink:href="#ma0385bc65b" x="249.01573" y="62.216264" style="fill: #4c72b0; stroke: #4c72b0"/>
     <use xlink:href="#ma0385bc65b" x="252.371653" y="56.10459" style="fill: #4c72b0; stroke: #4c72b0"/>
     <use xlink:href="#ma0385bc65b" x="255.727576" y="73.995164" style="fill: #4c72b0; stroke: #4c72b0"/>
     <use xlink:href="#ma0385bc65b" x="259.083499" y="60.010403" style="fill: #4c72b0; stroke: #4c72b0"/>
     <use xlink:href="#ma0385bc65b" x="262.439421" y="47.808356" style="fill: #4c72b0; stroke: #4c72b0"/>
     <use xlink:href="#ma0385bc65b" x="265.795344" y="62.924345" style="fill: #4c72b0; stroke: #4c72b0"/>
     <use xlink:href="#ma0385bc65b" x="269.151267" y="60.788389" style="fill: #4c72b0; stroke: #4c72b0"/>
     <use xlink:href="#ma0385bc65b" x="272.50719" y="53.12289" style="fill: #4c72b0; stroke: #4c72b0"/>
     <use xlink:href="#ma0385bc65b" x="275.863113" y="54.052933" style="fill: #4c72b0; stroke: #4c72b0"/>
     <use xlink:href="#ma0385bc65b" x="279.219036" y="65.080591" style="fill: #4c72b0; stroke: #4c72b0"/>
     <use xlink:href="#ma0385bc65b" x="282.574959" y="46.701161" style="fill: #4c72b0; stroke: #4c72b0"/>
     <use xlink:href="#ma0385bc65b" x="285.930882" y="55.027754" style="fill: #4c72b0; stroke: #4c72b0"/>
     <use xlink:href="#ma0385bc65b" x="289.286804" y="57.116171" style="fill: #4c72b0; stroke: #4c72b0"/>
     <use xlink:href="#ma0385bc65b" x="292.642727" y="61.692204" style="fill: #4c72b0; stroke: #4c72b0"/>
     <use xlink:href="#ma0385bc65b" x="295.99865" y="53.288009" style="fill: #4c72b0; stroke: #4c72b0"/>
     <use xlink:href="#ma0385bc65b" x="299.354573" y="50.316787" style="fill: #4c72b0; stroke: #4c72b0"/>
     <use xlink:href="#ma0385bc65b" x="302.710496" y="55.148849" style="fill: #4c72b0; stroke: #4c72b0"/>
     <use xlink:href="#ma0385bc65b" x="306.066419" y="59.801393" style="fill: #4c72b0; stroke: #4c72b0"/>
     <use xlink:href="#ma0385bc65b" x="309.422342" y="57.366944" style="fill: #4c72b0; stroke: #4c72b0"/>
     <use xlink:href="#ma0385bc65b" x="312.778264" y="61.321162" style="fill: #4c72b0; stroke: #4c72b0"/>
     <use xlink:href="#ma0385bc65b" x="316.134187" y="54.313943" style="fill: #4c72b0; stroke: #4c72b0"/>
     <use xlink:href="#ma0385bc65b" x="319.49011" y="52.124599" style="fill: #4c72b0; stroke: #4c72b0"/>
     <use xlink:href="#ma0385bc65b" x="322.846033" y="46.491111" style="fill: #4c72b0; stroke: #4c72b0"/>
     <use xlink:href="#ma0385bc65b" x="326.201956" y="44.166068" style="fill: #4c72b0; stroke: #4c72b0"/>
     <use xlink:href="#ma0385bc65b" x="329.557879" y="59.172917" style="fill: #4c72b0; stroke: #4c72b0"/>
     <use xlink:href="#ma0385bc65b" x="332.913802" y="50.862541" style="fill: #4c72b0; stroke: #4c72b0"/>
     <use xlink:href="#ma0385bc65b" x="336.269725" y="56.246279" style="fill: #4c72b0; stroke: #4c72b0"/>
     <use xlink:href="#ma0385bc65b" x="339.625647" y="58.074068" style="fill: #4c72b0; stroke: #4c72b0"/>
     <use xlink:href="#ma0385bc65b" x="342.98157" y="40.500872" style="fill: #4c72b0; stroke: #4c72b0"/>
     <use xlink:href="#ma0385bc65b" x="346.337493" y="40.740265" style="fill: #4c72b0; stroke: #4c72b0"/>
     <use xlink:href="#ma0385bc65b" x="349.693416" y="38.012704" style="fill: #4c72b0; stroke: #4c72b0"/>
     <use xlink:href="#ma0385bc65b" x="353.049339" y="54.940216" style="fill: #4c72b0; stroke: #4c72b0"/>
     <use xlink:href="#ma0385bc65b" x="356.405262" y="36.804545" style="fill: #4c72b0; stroke: #4c72b0"/>
     <use xlink:href="#ma0385bc65b" x="359.761185" y="62.398187" style="fill: #4c72b0; stroke: #4c72b0"/>
     <use xlink:href="#ma0385bc65b" x="363.117107" y="59.37663" style="fill: #4c72b0; stroke: #4c72b0"/>
     <use xlink:href="#ma0385bc65b" x="366.47303" y="42.955036" style="fill: #4c72b0; stroke: #4c72b0"/>
     <use xlink:href="#ma0385bc65b" x="369.828953" y="50.287391" style="fill: #4c72b0; stroke: #4c72b0"/>
     <use xlink:href="#ma0385bc65b" x="373.184876" y="46.91739" style="fill: #4c72b0; stroke: #4c72b0"/>
     <use xlink:href="#ma0385bc65b" x="376.540799" y="47.230066" style="fill: #4c72b0; stroke: #4c72b0"/>
     <use xlink:href="#ma0385bc65b" x="379.896722" y="43.673961" style="fill: #4c72b0; stroke: #4c72b0"/>
     <use xlink:href="#ma0385bc65b" x="383.252645" y="44.731937" style="fill: #4c72b0; stroke: #4c72b0"/>
     <use xlink:href="#ma0385bc65b" x="386.608567" y="43.281733" style="fill: #4c72b0; stroke: #4c72b0"/>
     <use xlink:href="#ma0385bc65b" x="389.96449" y="43.15059" style="fill: #4c72b0; stroke: #4c72b0"/>
     <use xlink:href="#ma0385bc65b" x="393.320413" y="58.53876" style="fill: #4c72b0; stroke: #4c72b0"/>
     <use xlink:href="#ma0385bc65b" x="396.676336" y="54.683085" style="fill: #4c72b0; stroke: #4c72b0"/>
     <use xlink:href="#ma0385bc65b" x="400.032259" y="46.290448" style="fill: #4c72b0; stroke: #4c72b0"/>
     <use xlink:href="#ma0385bc65b" x="403.388182" y="51.051322" style="fill: #4c72b0; stroke: #4c72b0"/>
    </g>
   </g>
   <g id="patch_3">
    <path d="M 54.54 240.18 
L 54.54 27.12 
" style="fill: none; stroke: #262626; stroke-width: 1.25; stroke-linejoin: miter; stroke-linecap: square"/>
   </g>
   <g id="patch_4">
    <path d="M 54.54 240.18 
L 420 240.18 
" style="fill: none; stroke: #262626; stroke-width: 1.25; stroke-linejoin: miter; stroke-linecap: square"/>
   </g>
   <g id="text_14">
    <!-- Fraction of Games Won -->
    <g style="fill: #262626" transform="translate(167.773125 21.12) scale(0.12 -0.12)">
     <defs>
      <path id="DejaVuSans-46" d="M 628 4666 
L 3309 4666 
L 3309 4134 
L 1259 4134 
L 1259 2759 
L 3109 2759 
L 3109 2228 
L 1259 2228 
L 1259 0 
L 628 0 
L 628 4666 
z
" transform="scale(0.015625)"/>
      <path id="DejaVuSans-63" d="M 3122 3366 
L 3122 2828 
Q 2878 2963 2633 3030 
Q 2388 3097 2138 3097 
Q 1578 3097 1268 2742 
Q 959 2388 959 1747 
Q 959 1106 1268 751 
Q 1578 397 2138 397 
Q 2388 397 2633 464 
Q 2878 531 3122 666 
L 3122 134 
Q 2881 22 2623 -34 
Q 2366 -91 2075 -91 
Q 1284 -91 818 406 
Q 353 903 353 1747 
Q 353 2603 823 3093 
Q 1294 3584 2113 3584 
Q 2378 3584 2631 3529 
Q 2884 3475 3122 3366 
z
" transform="scale(0.015625)"/>
      <path id="DejaVuSans-6f" d="M 1959 3097 
Q 1497 3097 1228 2736 
Q 959 2375 959 1747 
Q 959 1119 1226 758 
Q 1494 397 1959 397 
Q 2419 397 2687 759 
Q 2956 1122 2956 1747 
Q 2956 2369 2687 2733 
Q 2419 3097 1959 3097 
z
M 1959 3584 
Q 2709 3584 3137 3096 
Q 3566 2609 3566 1747 
Q 3566 888 3137 398 
Q 2709 -91 1959 -91 
Q 1206 -91 779 398 
Q 353 888 353 1747 
Q 353 2609 779 3096 
Q 1206 3584 1959 3584 
z
" transform="scale(0.015625)"/>
      <path id="DejaVuSans-66" d="M 2375 4863 
L 2375 4384 
L 1825 4384 
Q 1516 4384 1395 4259 
Q 1275 4134 1275 3809 
L 1275 3500 
L 2222 3500 
L 2222 3053 
L 1275 3053 
L 1275 0 
L 697 0 
L 697 3053 
L 147 3053 
L 147 3500 
L 697 3500 
L 697 3744 
Q 697 4328 969 4595 
Q 1241 4863 1831 4863 
L 2375 4863 
z
" transform="scale(0.015625)"/>
      <path id="DejaVuSans-47" d="M 3809 666 
L 3809 1919 
L 2778 1919 
L 2778 2438 
L 4434 2438 
L 4434 434 
Q 4069 175 3628 42 
Q 3188 -91 2688 -91 
Q 1594 -91 976 548 
Q 359 1188 359 2328 
Q 359 3472 976 4111 
Q 1594 4750 2688 4750 
Q 3144 4750 3555 4637 
Q 3966 4525 4313 4306 
L 4313 3634 
Q 3963 3931 3569 4081 
Q 3175 4231 2741 4231 
Q 1884 4231 1454 3753 
Q 1025 3275 1025 2328 
Q 1025 1384 1454 906 
Q 1884 428 2741 428 
Q 3075 428 3337 486 
Q 3600 544 3809 666 
z
" transform="scale(0.015625)"/>
      <path id="DejaVuSans-6d" d="M 3328 2828 
Q 3544 3216 3844 3400 
Q 4144 3584 4550 3584 
Q 5097 3584 5394 3201 
Q 5691 2819 5691 2113 
L 5691 0 
L 5113 0 
L 5113 2094 
Q 5113 2597 4934 2840 
Q 4756 3084 4391 3084 
Q 3944 3084 3684 2787 
Q 3425 2491 3425 1978 
L 3425 0 
L 2847 0 
L 2847 2094 
Q 2847 2600 2669 2842 
Q 2491 3084 2119 3084 
Q 1678 3084 1418 2786 
Q 1159 2488 1159 1978 
L 1159 0 
L 581 0 
L 581 3500 
L 1159 3500 
L 1159 2956 
Q 1356 3278 1631 3431 
Q 1906 3584 2284 3584 
Q 2666 3584 2933 3390 
Q 3200 3197 3328 2828 
z
" transform="scale(0.015625)"/>
      <path id="DejaVuSans-73" d="M 2834 3397 
L 2834 2853 
Q 2591 2978 2328 3040 
Q 2066 3103 1784 3103 
Q 1356 3103 1142 2972 
Q 928 2841 928 2578 
Q 928 2378 1081 2264 
Q 1234 2150 1697 2047 
L 1894 2003 
Q 2506 1872 2764 1633 
Q 3022 1394 3022 966 
Q 3022 478 2636 193 
Q 2250 -91 1575 -91 
Q 1294 -91 989 -36 
Q 684 19 347 128 
L 347 722 
Q 666 556 975 473 
Q 1284 391 1588 391 
Q 1994 391 2212 530 
Q 2431 669 2431 922 
Q 2431 1156 2273 1281 
Q 2116 1406 1581 1522 
L 1381 1569 
Q 847 1681 609 1914 
Q 372 2147 372 2553 
Q 372 3047 722 3315 
Q 1072 3584 1716 3584 
Q 2034 3584 2315 3537 
Q 2597 3491 2834 3397 
z
" transform="scale(0.015625)"/>
     </defs>
     <use xlink:href="#DejaVuSans-46"/>
     <use xlink:href="#DejaVuSans-72" transform="translate(50.269531 0)"/>
     <use xlink:href="#DejaVuSans-61" transform="translate(91.382812 0)"/>
     <use xlink:href="#DejaVuSans-63" transform="translate(152.662109 0)"/>
     <use xlink:href="#DejaVuSans-74" transform="translate(207.642578 0)"/>
     <use xlink:href="#DejaVuSans-69" transform="translate(246.851562 0)"/>
     <use xlink:href="#DejaVuSans-6f" transform="translate(274.634766 0)"/>
     <use xlink:href="#DejaVuSans-6e" transform="translate(335.816406 0)"/>
     <use xlink:href="#DejaVuSans-20" transform="translate(399.195312 0)"/>
     <use xlink:href="#DejaVuSans-6f" transform="translate(430.982422 0)"/>
     <use xlink:href="#DejaVuSans-66" transform="translate(492.164062 0)"/>
     <use xlink:href="#DejaVuSans-20" transform="translate(527.369141 0)"/>
     <use xlink:href="#DejaVuSans-47" transform="translate(559.15625 0)"/>
     <use xlink:href="#DejaVuSans-61" transform="translate(636.646484 0)"/>
     <use xlink:href="#DejaVuSans-6d" transform="translate(697.925781 0)"/>
     <use xlink:href="#DejaVuSans-65" transform="translate(795.337891 0)"/>
     <use xlink:href="#DejaVuSans-73" transform="translate(856.861328 0)"/>
     <use xlink:href="#DejaVuSans-20" transform="translate(908.960938 0)"/>
     <use xlink:href="#DejaVuSans-57" transform="translate(940.748047 0)"/>
     <use xlink:href="#DejaVuSans-6f" transform="translate(1033.75 0)"/>
     <use xlink:href="#DejaVuSans-6e" transform="translate(1094.931641 0)"/>
    </g>
   </g>
   <g id="legend_1">
    <g id="patch_5">
     <path d="M 320.358906 234.68 
L 412.3 234.68 
Q 414.5 234.68 414.5 232.48 
L 414.5 185.142187 
Q 414.5 182.942187 412.3 182.942187 
L 320.358906 182.942187 
Q 318.158906 182.942187 318.158906 185.142187 
L 318.158906 232.48 
Q 318.158906 234.68 320.358906 234.68 
z
" style="fill: #ffffff; opacity: 0.8; stroke: #cccccc; stroke-linejoin: miter"/>
    </g>
    <g id="line2d_15">
     <path d="M 322.558906 191.850469 
L 333.558906 191.850469 
L 344.558906 191.850469 
" style="fill: none; stroke: #4c72b0; stroke-width: 2; stroke-linecap: round"/>
     <g>
      <use xlink:href="#ma0385bc65b" x="333.558906" y="191.850469" style="fill: #4c72b0; stroke: #4c72b0"/>
     </g>
    </g>
    <g id="text_15">
     <!-- agent-001 -->
     <g style="fill: #262626" transform="translate(353.358906 195.700469) scale(0.11 -0.11)">
      <defs>
       <path id="DejaVuSans-67" d="M 2906 1791 
Q 2906 2416 2648 2759 
Q 2391 3103 1925 3103 
Q 1463 3103 1205 2759 
Q 947 2416 947 1791 
Q 947 1169 1205 825 
Q 1463 481 1925 481 
Q 2391 481 2648 825 
Q 2906 1169 2906 1791 
z
M 3481 434 
Q 3481 -459 3084 -895 
Q 2688 -1331 1869 -1331 
Q 1566 -1331 1297 -1286 
Q 1028 -1241 775 -1147 
L 775 -588 
Q 1028 -725 1275 -790 
Q 1522 -856 1778 -856 
Q 2344 -856 2625 -561 
Q 2906 -266 2906 331 
L 2906 616 
Q 2728 306 2450 153 
Q 2172 0 1784 0 
Q 1141 0 747 490 
Q 353 981 353 1791 
Q 353 2603 747 3093 
Q 1141 3584 1784 3584 
Q 2172 3584 2450 3431 
Q 2728 3278 2906 2969 
L 2906 3500 
L 3481 3500 
L 3481 434 
z
" transform="scale(0.015625)"/>
       <path id="DejaVuSans-2d" d="M 313 2009 
L 1997 2009 
L 1997 1497 
L 313 1497 
L 313 2009 
z
" transform="scale(0.015625)"/>
      </defs>
      <use xlink:href="#DejaVuSans-61"/>
      <use xlink:href="#DejaVuSans-67" transform="translate(61.279297 0)"/>
      <use xlink:href="#DejaVuSans-65" transform="translate(124.755859 0)"/>
      <use xlink:href="#DejaVuSans-6e" transform="translate(186.279297 0)"/>
      <use xlink:href="#DejaVuSans-74" transform="translate(249.658203 0)"/>
      <use xlink:href="#DejaVuSans-2d" transform="translate(288.867188 0)"/>
      <use xlink:href="#DejaVuSans-30" transform="translate(324.951172 0)"/>
      <use xlink:href="#DejaVuSans-30" transform="translate(388.574219 0)"/>
      <use xlink:href="#DejaVuSans-31" transform="translate(452.197266 0)"/>
     </g>
    </g>
    <g id="line2d_16">
     <path d="M 322.558906 207.996406 
L 333.558906 207.996406 
L 344.558906 207.996406 
" style="fill: none; stroke-dasharray: 7.4,3.2; stroke-dashoffset: 0; stroke: #dd8452; stroke-width: 2"/>
    </g>
    <g id="text_16">
     <!-- GPT-4o -->
     <g style="fill: #262626" transform="translate(353.358906 211.846406) scale(0.11 -0.11)">
      <defs>
       <path id="DejaVuSans-50" d="M 1259 4147 
L 1259 2394 
L 2053 2394 
Q 2494 2394 2734 2622 
Q 2975 2850 2975 3272 
Q 2975 3691 2734 3919 
Q 2494 4147 2053 4147 
L 1259 4147 
z
M 628 4666 
L 2053 4666 
Q 2838 4666 3239 4311 
Q 3641 3956 3641 3272 
Q 3641 2581 3239 2228 
Q 2838 1875 2053 1875 
L 1259 1875 
L 1259 0 
L 628 0 
L 628 4666 
z
" transform="scale(0.015625)"/>
       <path id="DejaVuSans-54" d="M -19 4666 
L 3928 4666 
L 3928 4134 
L 2272 4134 
L 2272 0 
L 1638 0 
L 1638 4134 
L -19 4134 
L -19 4666 
z
" transform="scale(0.015625)"/>
      </defs>
      <use xlink:href="#DejaVuSans-47"/>
      <use xlink:href="#DejaVuSans-50" transform="translate(77.490234 0)"/>
      <use xlink:href="#DejaVuSans-54" transform="translate(137.792969 0)"/>
      <use xlink:href="#DejaVuSans-2d" transform="translate(189.751953 0)"/>
      <use xlink:href="#DejaVuSans-34" transform="translate(225.835938 0)"/>
      <use xlink:href="#DejaVuSans-6f" transform="translate(289.458984 0)"/>
     </g>
    </g>
    <g id="line2d_17">
     <path d="M 322.558906 224.142344 
L 333.558906 224.142344 
L 344.558906 224.142344 
" style="fill: none; stroke-dasharray: 7.4,3.2; stroke-dashoffset: 0; stroke: #55a868; stroke-width: 2"/>
    </g>
    <g id="text_17">
     <!-- GPT-4.1 -->
     <g style="fill: #262626" transform="translate(353.358906 227.992344) scale(0.11 -0.11)">
      <use xlink:href="#DejaVuSans-47"/>
      <use xlink:href="#DejaVuSans-50" transform="translate(77.490234 0)"/>
      <use xlink:href="#DejaVuSans-54" transform="translate(137.792969 0)"/>
      <use xlink:href="#DejaVuSans-2d" transform="translate(189.751953 0)"/>
      <use xlink:href="#DejaVuSans-34" transform="translate(225.835938 0)"/>
      <use xlink:href="#DejaVuSans-2e" transform="translate(289.458984 0)"/>
      <use xlink:href="#DejaVuSans-31" transform="translate(321.246094 0)"/>
     </g>
    </g>
   </g>
  </g>
 </g>
 <defs>
  <clipPath id="p03ee4aa229">
   <rect x="54.54" y="27.12" width="365.46" height="213.06"/>
  </clipPath>
 </defs>
</svg>
